<svg version="1.1" id="Layer_1" xmlns="http://www.w3.org/2000/svg" xmlns:xlink="http://www.w3.org/1999/xlink" x="0px"
  y="0px" width="100%" viewBox="0 0 398 268" enable-background="new 0 0 398 268" xml:space="preserve">
  <path fill="#131313" opacity="1.000000" stroke="none" d="
M188.156845,37.842316 
	C184.849655,35.927032 181.868073,34.179554 178.286560,32.080456 
	C180.185944,30.880888 181.620575,29.912334 183.112640,29.042295 
	C196.880859,21.013819 210.692856,13.059422 224.402191,4.931821 
	C226.786896,3.518053 228.536316,3.297431 231.064590,4.771405 
	C245.549927,13.216298 260.132233,21.496992 274.762299,29.689348 
	C277.065399,30.978979 278.025055,32.320477 278.007660,35.061810 
	C277.900177,52.036449 278.061493,69.012787 277.955841,85.987450 
	C277.946472,87.492859 277.082703,89.689445 275.913452,90.385834 
	C260.375916,99.639763 244.712723,108.682762 228.562317,118.080109 
	C228.410004,116.450996 228.206070,115.258408 228.200897,114.064957 
	C228.130142,97.755226 227.998230,81.444748 228.112823,65.136086 
	C228.135284,61.939659 227.313080,60.144146 224.372269,58.523026 
	C212.306290,51.871712 200.429108,44.877895 188.156845,37.842316 
z" />
  <path fill="#131313" opacity="1.000000" stroke="none" d="
M178.296585,127.999329 
	C178.294495,117.843147 178.294495,108.186974 178.294495,97.884445 
	C180.066177,98.757286 181.651199,99.434845 183.136688,100.286095 
	C196.972519,108.214661 210.856796,116.062836 224.562027,124.211815 
	C227.453278,125.930923 229.408112,125.714821 232.136154,124.080727 
	C247.067490,115.136917 262.118225,106.392418 277.616638,97.292465 
	C277.833313,98.363060 278.042908,98.921265 278.045410,99.480408 
	C278.123108,116.798119 278.260956,134.116608 278.114227,151.432632 
	C278.099854,153.127670 276.739349,155.516113 275.287048,156.385208 
	C260.749329,165.084915 246.100769,173.603180 231.354141,181.943985 
	C229.896103,182.768661 227.186722,182.785675 225.721741,181.976349 
	C210.893112,173.784332 196.153091,165.426590 181.546097,156.846542 
	C179.991669,155.933502 178.656387,153.347397 178.564743,151.471710 
	C178.191330,143.828171 178.341476,136.159027 178.296585,127.999329 
z" />
  <path fill="#131313" opacity="1.000000" stroke="none" d="
M168.460510,149.843842 
	C153.824844,141.509399 139.579742,133.286041 125.225357,125.258049 
	C122.729576,123.862228 121.786613,122.354774 121.799568,119.471176 
	C121.874390,102.817375 121.778343,86.162094 121.610397,69.508621 
	C121.582802,66.772484 122.174583,65.046616 124.792023,63.557163 
	C139.373672,55.259491 153.791977,46.675068 168.348831,38.333035 
	C169.685059,37.567287 172.027679,37.061359 173.188278,37.711201 
	C189.114227,46.628429 204.914459,55.770149 221.395294,65.229622 
	C210.332260,71.694756 199.819656,77.794968 189.352463,83.972115 
	C183.507584,87.421432 175.569626,89.729675 172.555222,94.881203 
	C169.642914,99.858284 171.811340,107.825127 171.799164,114.478752 
	C171.777054,126.579674 171.792892,138.680679 171.792892,151.322922 
	C170.513977,150.764023 169.663986,150.392578 168.460510,149.843842 
z" />
  <path fill="#161616" opacity="1.000000" stroke="none" d="
M309.006042,235.217407 
	C312.819000,238.578125 314.145294,242.825684 314.074615,247.740936 
	C314.000916,252.869553 314.058136,258.000061 314.058136,263.490479 
	C311.840240,263.490479 308.975586,263.490479 305.031250,263.490479 
	C305.031250,258.401306 305.079254,253.311981 305.019287,248.223923 
	C304.941254,241.604111 303.300568,240.101517 296.252869,240.377869 
	C296.252869,247.941956 296.252869,255.538361 296.252869,263.489136 
	C293.154175,263.489136 290.432220,263.489136 287.360168,263.489136 
	C287.360168,244.598557 287.360168,225.598068 287.360168,205.897568 
	C293.455200,206.207123 299.412201,206.209457 305.272888,206.962067 
	C307.471344,207.244385 310.007141,208.821136 311.419617,210.584366 
	C316.086823,216.410660 314.709534,229.649277 309.006042,235.217407 
M296.036560,222.562485 
	C296.036560,225.691696 296.036560,228.820908 296.036560,233.559433 
	C299.478302,231.834839 303.672485,230.983871 304.035736,229.304337 
	C304.935791,225.143021 304.631470,220.468063 303.603363,216.297134 
	C303.294952,215.045975 299.005951,214.776016 296.036530,213.909439 
	C296.036530,217.319321 296.036530,219.466721 296.036560,222.562485 
z" />
  <path fill="#161616" opacity="1.000000" stroke="none" d="
M367.927643,231.999985 
	C367.927551,223.220139 367.927551,214.940292 367.927551,205.904175 
	C374.261017,206.215149 380.208557,206.206238 386.060486,206.949692 
	C388.255707,207.228546 390.790070,208.806244 392.202118,210.567566 
	C397.259460,216.875748 395.520721,230.327301 389.437225,235.398697 
	C398.897552,243.141647 392.935822,254.174774 395.649841,263.272949 
	C395.104645,263.515289 394.814026,263.742798 394.507782,263.766296 
	C385.959625,264.423035 385.958893,264.419586 385.947083,255.878754 
	C385.943420,253.217834 386.002167,250.555298 385.929108,247.896332 
	C385.758179,241.675735 384.134644,240.213394 377.061951,240.309174 
	C377.061951,247.980194 377.061951,255.686615 377.061951,263.611267 
	C373.890076,263.611267 371.288208,263.611267 367.927734,263.611267 
	C367.927734,253.294708 367.927734,242.897354 367.927643,231.999985 
M385.793701,219.145645 
	C384.934082,213.578568 381.117432,214.250305 377.145996,214.801651 
	C377.145996,220.684738 377.145996,226.284042 377.145996,231.866562 
	C384.254028,232.362518 385.813416,231.020905 385.908142,224.486633 
	C385.929810,222.991028 385.885132,221.494461 385.793701,219.145645 
z" />
  <path fill="#161616" opacity="1.000000" stroke="none" d="
M244.990173,247.841949 
	C244.993835,238.224182 244.908524,229.083908 245.026505,219.946259 
	C245.143524,210.881882 249.821411,205.996979 258.229645,205.858536 
	C267.187408,205.711029 271.923157,210.123199 272.189850,219.595139 
	C272.475006,229.722809 272.445190,239.867386 272.244110,249.998428 
	C272.045746,259.993073 267.851288,264.024994 258.316864,264.009583 
	C249.445496,263.995239 245.376175,259.658539 245.002655,249.815933 
	C244.983749,249.318039 244.993713,248.819077 244.990173,247.841949 
M263.280090,242.468170 
	C263.246216,234.485489 263.434235,226.490524 262.994263,218.530289 
	C262.904541,216.907730 260.542450,214.288895 259.067047,214.172760 
	C257.517609,214.050812 254.378677,216.338196 254.335602,217.651474 
	C253.959625,229.112198 253.959473,240.595993 254.338806,252.056686 
	C254.384476,253.436417 257.266388,255.584885 258.994476,255.756241 
	C260.236633,255.879395 262.527618,253.511002 262.959656,251.884537 
	C263.663971,249.233200 263.232605,246.280228 263.280090,242.468170 
z" />
  <path fill="#191919" opacity="1.000000" stroke="none" d="
M142.027344,250.038956 
	C141.163025,247.291336 140.383331,244.937073 139.136612,241.172623 
	C136.376236,249.392853 133.999329,256.471130 131.582062,263.669556 
	C128.985641,263.669556 126.526962,263.669556 123.312622,263.669556 
	C125.996666,255.654099 128.357285,247.810074 131.283524,240.183044 
	C132.873672,236.038483 132.910690,232.434387 131.296173,228.278275 
	C128.544403,221.194611 126.413879,213.869598 124.005043,206.593658 
	C132.895569,205.437042 132.887527,205.439606 135.355637,213.168869 
	C136.713257,217.420471 138.103302,221.661697 139.928299,227.295395 
	C141.818985,221.754425 143.356293,217.380890 144.803543,212.977768 
	C147.154800,205.824249 147.129913,205.816071 155.234955,206.455673 
	C152.564362,214.362671 149.724213,222.069656 147.437027,229.937424 
	C146.671906,232.569351 146.658127,235.809448 147.442215,238.430054 
	C149.954178,246.825470 153.000534,255.060989 155.814606,263.282104 
	C155.375046,263.546204 155.255142,263.677063 155.125198,263.687927 
	C146.590729,264.401642 146.591751,264.400421 144.094925,256.588348 
	C143.438614,254.534836 142.773209,252.484253 142.027344,250.038956 
z" />
  <path fill="#191919" opacity="1.000000" stroke="none" d="
M183.713501,242.117554 
	C181.799377,242.228729 180.334854,242.314987 178.406952,242.428528 
	C178.406952,249.543488 178.406952,256.454193 178.406952,263.605835 
	C175.206848,263.605835 172.485474,263.605835 169.497742,263.605835 
	C169.497742,244.512833 169.497742,225.651276 169.497742,206.360214 
	C174.706497,206.360214 179.826096,205.961624 184.857391,206.458038 
	C191.610031,207.124283 195.239014,211.018723 195.835403,217.858078 
	C196.209106,222.143829 196.218704,226.513687 195.852234,230.799683 
	C195.265930,237.656815 191.587906,240.989380 183.713501,242.117554 
M187.037979,220.843445 
	C186.544327,214.536606 184.646011,213.332123 178.471710,215.355484 
	C178.471710,221.450623 178.471710,227.525558 178.471710,233.568619 
	C185.894577,234.534180 186.992981,233.630264 187.036911,226.711258 
	C187.047394,225.059219 187.038879,223.407028 187.037979,220.843445 
z" />
  <path fill="#191919" opacity="1.000000" stroke="none" d="
M58.861946,264.015137 
	C48.162815,265.518799 42.907646,256.871979 44.856121,245.422318 
	C47.365055,245.422318 49.926342,245.422318 53.001362,245.422318 
	C53.001362,247.338226 52.975975,249.118774 53.006977,250.898346 
	C53.060989,253.999069 54.513062,256.540619 57.683483,255.875702 
	C59.407234,255.514206 60.836956,252.948105 62.010597,251.126007 
	C62.547375,250.292633 62.164360,248.854904 62.166771,247.691193 
	C62.184246,239.259216 61.770611,238.770844 53.448013,237.534195 
	C53.448013,235.124100 53.448013,232.684494 53.448013,230.276077 
	C62.099609,228.825455 62.800179,227.862000 62.117268,219.113708 
	C61.886391,216.156113 61.123341,213.822388 57.550304,213.870544 
	C54.089104,213.917221 52.987934,216.042892 52.987251,219.113907 
	C52.986996,220.260666 52.987213,221.407425 52.987213,222.870636 
	C50.217434,222.870636 47.635098,222.870636 45.030357,222.870636 
	C43.285233,215.457962 45.899738,209.384018 51.975533,206.850311 
	C58.143753,204.278091 65.901001,206.219742 69.014915,211.115295 
	C73.188820,217.677292 71.598732,228.118103 65.646576,233.232361 
	C71.780861,238.904297 73.767159,252.980408 68.547989,259.350922 
	C66.547714,261.792450 62.444714,262.511292 58.861946,264.015137 
z" />
  <path fill="#181818" opacity="1.000000" stroke="none" d="
M28.829041,258.637939 
	C25.164457,265.132721 17.341303,264.940796 11.638109,263.342621 
	C5.905243,261.736115 3.632224,256.017670 4.227509,246.776779 
	C6.769798,246.776779 9.338027,246.776779 12.244180,246.776779 
	C12.427591,248.597610 12.121019,250.636765 12.913644,252.066605 
	C13.796700,253.659561 15.684642,255.709244 17.125954,255.702103 
	C18.655939,255.694519 21.568132,253.339737 21.444057,252.300400 
	C21.032644,248.854126 20.147209,245.130783 18.275869,242.280365 
	C16.134201,239.018188 12.649315,236.664520 9.916063,233.758118 
	C5.176223,228.718002 3.155648,222.821533 4.688949,215.887665 
	C6.162700,209.223068 10.421648,205.842926 17.498903,205.839142 
	C24.599348,205.835342 28.833643,209.167816 30.209078,215.924469 
	C30.571280,217.703751 30.747831,219.520798 31.072622,221.753494 
	C29.370710,221.850098 27.930931,221.960495 26.489113,222.005142 
	C25.189175,222.045395 23.887009,222.013641 22.567238,222.013641 
	C22.378513,221.151962 22.193663,220.696014 22.192097,220.239426 
	C22.179550,216.584686 21.599705,213.021698 16.801132,214.012177 
	C12.253546,214.950836 12.657541,218.915894 13.752635,222.053009 
	C14.697988,224.761169 16.569120,227.258316 18.446915,229.500397 
	C20.788481,232.296219 23.750834,234.571167 26.101040,237.360916 
	C31.413206,243.666595 32.373489,250.715607 28.829041,258.637939 
z" />
  <path fill="#1F1F1F" opacity="1.000000" stroke="none" d="
M100.062836,214.561874 
	C98.281197,214.645630 96.982742,214.729385 95.445091,214.828568 
	C95.445091,219.974136 95.445091,224.894928 95.445091,230.416321 
	C99.492287,230.416321 103.398453,230.416321 107.502350,230.416321 
	C107.502350,233.435455 107.502350,235.855576 107.502350,238.830444 
	C103.408478,238.830444 99.505760,238.830444 95.407982,238.830444 
	C95.407982,244.479675 95.407982,249.576950 95.407982,255.357819 
	C100.548218,255.357819 105.593491,255.357819 110.678757,255.357819 
	C110.678757,258.481567 110.678757,260.921600 110.678757,263.615845 
	C102.532837,263.615845 94.620728,263.615845 86.406631,263.615845 
	C86.406631,244.548843 86.406631,225.650452 86.406631,206.438843 
	C94.409630,206.438843 102.318054,206.438843 110.573044,206.438843 
	C110.573044,208.989426 110.573044,211.527847 110.573044,214.561874 
	C107.146561,214.561874 103.846291,214.561874 100.062836,214.561874 
z" />
  <path fill="#1B1B1B" opacity="1.000000" stroke="none" d="
M349.626770,263.862366 
	C342.689331,263.862427 336.208801,263.862427 329.315979,263.862427 
	C329.315979,244.698669 329.315979,225.692154 329.315979,206.409836 
	C337.162720,206.409836 345.047119,206.409836 353.194519,206.409836 
	C353.194519,209.007614 353.194519,211.438187 353.194519,214.376801 
	C348.228790,214.376801 343.331146,214.376801 338.199585,214.376801 
	C338.199585,219.962112 338.199585,225.042053 338.199585,230.510803 
	C342.198578,230.510803 345.968872,230.510803 349.965454,230.510803 
	C349.965454,233.343307 349.965454,235.790009 349.965454,238.611633 
	C346.181732,238.611633 342.414703,238.611633 338.301819,238.611633 
	C338.301819,244.352173 338.301819,249.728439 338.301819,255.440857 
	C343.205444,255.440857 347.978058,255.440857 353.453156,255.440857 
	C352.201019,258.581421 356.731995,263.061096 349.626770,263.862366 
z" />
  <path fill="#191919" opacity="1.000000" stroke="none" d="
M218.082794,220.007767 
	C218.083038,231.966309 218.083038,243.426758 218.083038,255.423370 
	C223.187256,255.423370 227.927292,255.423370 232.816925,255.423370 
	C232.816925,258.409851 232.816925,260.856201 232.816925,263.579041 
	C225.054749,263.579041 217.455032,263.579041 209.446320,263.579041 
	C209.446320,244.674896 209.446320,225.663773 209.446320,206.397202 
	C212.079849,206.397202 214.683563,206.397202 218.082550,206.397202 
	C218.082550,210.682281 218.082550,215.095978 218.082794,220.007767 
z" />
</svg>