<svg version="1.1" id="Layer_1" xmlns="http://www.w3.org/2000/svg" xmlns:xlink="http://www.w3.org/1999/xlink" x="0px"
	y="0px" width="100%" viewBox="0 0 161 182" enable-background="new 0 0 161 182" xml:space="preserve">
	<path fill="#ffffff" opacity="1.000000" stroke="none" d="
M109.250000,183.000000 
	C99.752922,177.553925 90.525658,172.073822 81.251892,166.673569 
	C74.931160,162.992905 68.496239,159.505554 62.231457,155.733978 
	C61.021198,155.005341 59.579002,153.367371 59.567509,152.136505 
	C59.397003,133.881180 59.449848,115.623779 59.449848,96.680504 
	C67.164146,101.086800 74.471031,105.250298 81.768036,109.431046 
	C89.846390,114.059448 97.984680,118.589615 105.948128,123.408371 
	C108.431931,124.911339 110.180016,124.817902 112.637138,123.342575 
	C126.034126,115.298637 139.553513,107.458450 153.036758,99.558388 
	C154.730133,98.566216 156.458725,97.634178 158.666901,96.396271 
	C158.836670,97.705772 159.047729,98.589706 159.051712,99.474571 
	C159.127457,116.305893 159.107986,133.138153 159.303268,149.967941 
	C159.336731,152.850143 158.400024,154.413376 155.917633,155.830841 
	C140.615784,164.568359 125.410507,173.474991 110.086563,182.662689 
	C110.000000,183.000000 109.500000,183.000000 109.250000,183.000000 
z" />
	<path fill="#ffffff" opacity="1.000000" stroke="none" d="
M158.959610,46.005020 
	C158.987747,59.159351 159.091034,71.815872 158.949799,84.469658 
	C158.931076,86.147255 158.150024,88.616295 156.908585,89.358818 
	C141.382523,98.645164 125.706276,107.680412 109.546860,117.083641 
	C109.401550,115.424431 109.209610,114.224915 109.204498,113.024605 
	C109.134270,96.539040 109.021141,80.053009 109.104591,63.568043 
	C109.118988,60.724499 108.262512,59.184101 105.733429,57.760311 
	C90.399147,49.127579 75.184288,40.282707 59.515976,31.270840 
	C60.458652,30.483692 61.083778,29.793423 61.850658,29.346252 
	C76.488373,20.810959 91.185257,12.375780 105.750862,3.719578 
	C108.112251,2.316229 109.714561,2.446811 111.977104,3.756609 
	C126.497070,12.162312 141.062195,20.493050 155.724686,28.646675 
	C158.313614,30.086348 159.136124,31.735792 158.983749,34.518654 
	C158.783783,38.170734 158.949783,41.842854 158.959610,46.005020 
z" />
	<path fill="#ffffff" opacity="1.000000" stroke="none" d="
M61.979744,41.021427 
	C75.530090,48.790333 88.744766,56.410076 102.368958,64.265953 
	C86.791412,73.344757 71.804482,82.207420 56.662216,90.796211 
	C53.639568,92.510689 52.598965,94.372375 52.635017,97.807449 
	C52.816555,115.103836 52.718357,132.403168 52.718357,150.187714 
	C51.364391,149.612091 50.159111,149.233658 49.085861,148.623138 
	C34.788342,140.490051 20.549774,132.251968 6.187718,124.234962 
	C3.655863,122.821655 2.796686,121.270485 2.807909,118.420807 
	C2.873503,101.765854 2.827188,85.108734 2.581795,68.455826 
	C2.535587,65.320045 3.665613,63.728447 6.256297,62.251980 
	C19.680126,54.601566 33.181683,47.059975 46.272400,38.867283 
	C50.971130,35.926632 54.550999,35.768578 58.657421,39.072021 
	C59.554905,39.794006 60.643490,40.278435 61.979744,41.021427 
z" />
</svg>